<svg width="87" height="33" viewBox="0 0 87 33" fill="none" xmlns="http://www.w3.org/2000/svg">
<g clip-path="url(#clip0_3001_3143)">
<path d="M40.2838 12.403C39.8141 12.2538 39.4609 12.1478 39.1193 12.03C37.3648 11.4332 35.6064 10.8286 33.7393 10.7854C32.9674 10.7428 32.1935 10.8129 31.4413 10.9935C30.1953 11.339 29.9779 12.3166 30.8513 13.3139C31.0303 13.5092 31.225 13.6892 31.4336 13.8518C33.0678 15.1985 34.7097 16.5373 36.3439 17.884C37.7025 19.003 39.0106 20.1848 40.0043 21.8102C40.0043 21.025 40.0043 20.3536 40.0043 19.6861C39.9024 17.4183 40.2346 15.1519 40.9825 13.0115C42.6594 8.49244 45.885 5.88935 50.4111 5.06877C52.9745 4.57559 55.6161 4.69118 58.1279 5.40642C60.5213 6.06266 62.6058 7.55877 64.0086 9.62713C64.0901 9.74884 64.1833 9.86663 64.2764 9.98049C64.2764 9.98049 64.3269 9.98049 64.4472 9.98049C64.521 8.61808 64.5947 7.23212 64.6724 5.77942C65.864 5.57133 67.0712 5.77942 68.3444 5.63415C68.4376 4.20107 68.5269 2.79548 68.6239 1.29173L75.1451 0C75.2849 1.88067 74.9937 3.70244 75.017 5.6577C76.0107 5.6577 76.9773 5.68126 77.9438 5.68519H80.8978C80.8163 7.49518 80.7425 9.2188 80.6649 11.0052H74.6483C74.6056 11.4607 74.559 11.814 74.5396 12.1831C74.3481 15.7795 74.1631 19.376 73.9845 22.9724C73.9357 23.6365 73.9591 24.304 74.0544 24.963C74.2834 26.2901 75.1335 27.0518 76.4183 27.0164C77.3937 26.9381 78.3642 26.807 79.3257 26.6238C79.4615 26.6238 79.5974 26.5531 79.8225 26.4942C79.6944 28.3906 79.5702 30.2242 79.4344 32.1873C78.658 32.3168 77.8817 32.5053 77.086 32.5799C75.1451 32.7291 73.2276 32.8469 71.31 32.4582C70.8852 32.3706 70.4684 32.2471 70.064 32.0891C68.193 31.3745 67.1527 29.9493 67.0363 27.8763C66.9956 26.909 67.0111 25.9402 67.0829 24.9748C67.2304 22.2264 67.4089 19.478 67.5642 16.7297C67.6535 15.1906 67.7272 13.6476 67.7971 12.1046C67.7971 11.7826 67.7971 11.4568 67.7971 11.0838H64.9402C64.9372 11.1857 64.949 11.2876 64.9751 11.3861C65.7984 13.4019 66.209 15.5657 66.1823 17.7466C66.2404 19.7099 65.9955 21.6704 65.4565 23.5574C63.9426 28.5005 60.6626 31.3471 55.8532 32.2579C53.2651 32.7786 50.5921 32.6751 48.051 31.9556C46.5123 31.546 45.0881 30.7816 43.8901 29.7225C42.6921 28.6633 41.7527 27.338 41.1455 25.8503C41.0679 25.6697 40.9708 25.493 40.7884 25.1318C40.7185 25.764 40.6953 26.1998 40.6215 26.6238C40.4523 27.7207 40.0232 28.7599 39.371 29.6528C38.7187 30.5457 37.8626 31.2657 36.8757 31.7515C35.312 32.5207 33.6028 32.9398 31.8644 32.9804C29.0036 33.1335 26.2477 32.5289 23.5266 31.6729L22.7037 31.4099C22.6765 31.4099 22.6455 31.4099 22.5678 31.4295C22.5251 31.6297 22.4785 31.8535 22.4242 32.1048H15.2819C15.4411 29.9846 15.608 27.8959 15.7516 25.7993C15.8952 23.7027 16.0078 21.6532 16.1398 19.427C13.8108 20.7737 11.3692 21.2527 9.07512 22.2068C8.75817 22.3406 8.44965 22.4941 8.15128 22.6662C7.72767 22.8924 7.38334 23.2453 7.16523 23.6767C6.94711 24.1081 6.86582 24.597 6.93243 25.0769C6.94154 25.5447 7.08818 25.9991 7.35365 26.3823C7.61911 26.7655 7.99138 27.0601 8.423 27.2284C9.5448 27.731 10.686 27.5622 11.8233 27.3187C12.4949 27.1774 13.1548 26.9929 13.9272 26.8044C13.8845 27.0635 13.8767 27.2324 13.8341 27.3933C13.4459 28.7871 13.0577 30.1731 12.6695 31.5748C12.64 31.7617 12.5521 31.9342 12.4187 32.067C12.2853 32.1998 12.1134 32.286 11.9281 32.3129C9.74277 32.8547 7.55738 33.0982 5.3293 32.4974C1.59513 31.5159 -0.357355 28.3396 0.0541025 24.2209C0.321938 21.5079 1.68441 19.5723 4.01729 18.4847C5.47939 17.859 6.97486 17.3164 8.49675 16.8592C10.1969 16.2899 11.9165 15.7913 13.6167 15.2181C14.1933 15.0306 14.7429 14.7665 15.2509 14.4328C15.5035 14.2597 15.7151 14.0321 15.8706 13.7665C16.0261 13.5008 16.1215 13.2037 16.1501 12.8963C16.1786 12.589 16.1396 12.2791 16.0358 11.9888C15.9321 11.6985 15.7661 11.435 15.5498 11.2173C15.0493 10.7185 14.4023 10.3974 13.706 10.3024C12.2492 10.0426 10.7519 10.145 9.34295 10.6008C7.65831 11.1073 6.01636 11.7787 4.35888 12.3794C4.09493 12.4776 3.83874 12.6032 3.4661 12.772C3.59419 11.6845 3.70288 10.7343 3.81933 9.78025C3.93578 8.82617 4.05999 7.98203 4.15703 7.08293C4.15554 6.89061 4.22388 6.70442 4.34909 6.55968C4.4743 6.41494 4.64768 6.32171 4.83633 6.29768C7.71802 5.55203 10.6773 5.15661 13.6516 5.11981C15.1526 5.08118 16.6524 5.2342 18.1155 5.57525C20.8948 6.23879 22.0322 7.3185 22.9016 10.2082C22.9789 10.1308 23.0444 10.0421 23.0957 9.94515C23.6819 8.19798 24.924 7.11434 26.4379 6.32124C27.6822 5.69123 29.0394 5.32135 30.4282 5.23367C33.6034 4.99417 36.6932 5.53992 39.7442 6.41154C39.8181 6.45228 39.8883 6.49959 39.9538 6.55289C40.0548 8.4257 40.1557 10.3456 40.2683 12.399L40.2838 12.403ZM59.2341 18.9166C59.1837 16.8121 59.0711 15.383 58.5665 13.9892C57.9299 12.2459 56.7615 11.1112 55.0186 10.7461C54.2515 10.5976 53.468 10.5553 52.6896 10.6205C49.9725 10.7971 48.2412 12.2302 47.4416 14.9393C46.7487 17.3013 46.6672 19.8038 47.2048 22.2068C47.8142 25.0258 49.297 26.4824 52.0142 26.7769C55.2127 27.1224 57.8367 25.8385 58.7062 22.2146C58.9376 21.1251 59.1138 20.0243 59.2341 18.9166ZM22.6532 24.912C22.7119 24.9834 22.7783 25.0479 22.8512 25.1043C24.8296 26.1349 26.9618 26.8299 29.1628 27.1617C30.3063 27.3609 31.4812 27.2595 32.5748 26.8672C32.8305 26.7856 33.0653 26.648 33.2625 26.4642C33.4596 26.2804 33.6143 26.0549 33.7155 25.8037C33.8167 25.5525 33.8619 25.2819 33.8479 25.011C33.8339 24.7402 33.761 24.4758 33.6345 24.2366C33.4386 23.8088 33.1524 23.4295 32.796 23.1255C30.4981 21.1546 28.1652 19.2385 25.8711 17.2754C24.8743 16.4783 24.0466 15.4862 23.4373 14.3582C23.3674 14.2169 23.2704 14.0913 23.0763 13.7811C22.9288 17.6641 22.7891 21.3312 22.6532 24.9277V24.912Z" fill="white"/>
<path d="M83.8427 32.4661C82.9809 32.4436 82.1615 32.0833 81.5575 31.4612C80.9534 30.839 80.6121 30.0038 80.6056 29.1319C80.599 28.2599 80.9278 27.4195 81.5224 26.7882C82.117 26.1569 82.9309 25.784 83.7922 25.7483C84.654 25.7707 85.4735 26.1311 86.0775 26.7532C86.6815 27.3753 87.0228 28.2106 87.0294 29.0825C87.0359 29.9544 86.7072 30.7948 86.1126 31.4262C85.518 32.0575 84.704 32.4304 83.8427 32.4661Z" fill="#EC1C24"/>
</g>
<defs>
<clipPath id="clip0_3001_3143">
<rect width="87" height="33" fill="white"/>
</clipPath>
</defs>
</svg>
