<svg width="114" height="40" viewBox="0 0 114 40" fill="none" xmlns="http://www.w3.org/2000/svg">
<path d="M35.4992 25.8571V37.2668C27.1631 35.7886 19.6137 31.4223 14.1753 24.9339C8.73688 18.4455 5.7568 10.2494 5.75781 1.7832H16.8978C16.8991 7.2882 18.7256 12.6374 22.0915 16.9935C25.4574 21.3497 30.1727 24.4668 35.4992 25.8571Z" fill="white"/>
<path d="M7.83506 37.8547C12.1622 37.8547 15.6701 34.3468 15.6701 30.0196C15.6701 25.6924 12.1622 22.1846 7.83506 22.1846C3.50788 22.1846 0 25.6924 0 30.0196C0 34.3468 3.50788 37.8547 7.83506 37.8547Z" fill="#EC1C24"/>
<path d="M74.8906 10.2649C74.4974 10.1414 74.2016 10.0536 73.9157 9.95615C72.4436 9.46219 70.9714 8.96174 69.4116 8.92599C68.7564 8.89053 68.0995 8.95074 67.4617 9.10472C66.4186 9.3907 66.2366 10.1999 66.9678 11.0253C67.1184 11.1862 67.2814 11.3351 67.4552 11.4705C68.8266 12.5852 70.198 13.6933 71.5661 14.808C72.7068 15.7341 73.7987 16.7123 74.6306 18.0577C74.6306 17.4077 74.6306 16.852 74.6306 16.2996C74.5453 14.4225 74.8234 12.5467 75.4495 10.7751C76.8729 7.02491 79.5702 4.86385 83.3594 4.19116C85.5054 3.78296 87.717 3.87863 89.8198 4.47063C91.8235 5.0138 93.5687 6.25211 94.7431 7.96408C94.8114 8.06482 94.8893 8.16231 94.9673 8.25655C94.9673 8.25655 95.0128 8.25655 95.1136 8.25655C95.1721 7.1289 95.2338 5.98175 95.3021 4.77935C96.2965 4.60712 97.3104 4.77935 98.373 4.65911C98.451 3.47297 98.5258 2.30957 98.607 1.06493L104.076 -0.000976562C104.193 1.55564 103.95 3.0635 103.969 4.68186C104.801 4.68186 105.61 4.70136 106.419 4.70461H108.892C108.827 6.20273 108.762 7.62935 108.697 9.10798H103.667C103.631 9.48494 103.595 9.77742 103.579 10.0829C103.42 13.0596 103.254 16.0364 103.114 19.0131C103.074 19.5628 103.093 20.1153 103.173 20.6607C103.361 21.7591 104.073 22.3896 105.149 22.3603C105.965 22.2957 106.778 22.1872 107.583 22.0353C107.7 22.0353 107.81 21.9768 107.999 21.9281C107.891 23.4977 107.791 25.0153 107.674 26.6402C107.024 26.7474 106.374 26.9034 105.704 26.9652C104.08 27.0886 102.474 27.1861 100.869 26.8644C100.513 26.7919 100.164 26.6897 99.8257 26.5589C98.256 25.9707 97.3981 24.7911 97.2876 23.072C97.2535 22.2714 97.2666 21.4695 97.3266 20.6705C97.4501 18.3957 97.5996 16.1209 97.7328 13.8461C97.8043 12.5722 97.8661 11.295 97.9278 10.0179C97.9278 9.75142 97.9278 9.48169 97.9278 9.17297H95.5425C95.5433 9.25719 95.5531 9.34108 95.5718 9.4232C96.262 11.0915 96.6069 12.8824 96.5857 14.6877C96.6284 16.3134 96.419 17.9358 95.965 19.4973C94.6976 23.592 91.9678 25.948 87.9252 26.7019C85.7585 27.1329 83.5207 27.0472 81.3933 26.4517C80.1063 26.1114 78.9155 25.4779 77.9142 24.6006C76.9129 23.7234 76.1283 22.6262 75.6218 21.3951C75.5535 21.2457 75.4723 21.0994 75.3228 20.8004C75.2643 21.3237 75.2416 21.6844 75.1798 22.0353C75.0386 22.9438 74.6792 23.8045 74.1325 24.5437C73.5857 25.2829 72.8679 25.8785 72.0406 26.2795C70.7307 26.9173 69.2985 27.2643 67.842 27.2966C65.4502 27.4234 63.1396 26.9229 60.8648 26.2145L60.1726 25.9967C60.1531 25.9967 60.1271 25.9967 60.0589 26.013C60.0231 26.1787 59.9841 26.364 59.9387 26.5719H53.9462C54.0794 24.8171 54.2224 23.0882 54.3426 21.3529C54.4629 19.6176 54.5539 17.9212 54.6676 16.0786C52.7178 17.1933 50.6737 17.5897 48.7531 18.3794C48.4836 18.4914 48.221 18.6195 47.9667 18.7629C47.6121 18.9501 47.3238 19.2422 47.1412 19.5993C46.9586 19.9564 46.8905 20.361 46.9463 20.7582C46.9539 21.1454 47.0767 21.5216 47.2989 21.8387C47.5212 22.1559 47.8328 22.3997 48.1942 22.539C49.1366 22.955 50.0888 22.8153 51.0409 22.6138C51.6031 22.4968 52.1588 22.3441 52.8023 22.1881C52.7859 22.352 52.7599 22.5147 52.7243 22.6755C52.3993 23.8292 52.0743 24.9763 51.7494 26.1365C51.7253 26.2909 51.6523 26.4336 51.5412 26.5436C51.4301 26.6535 51.2866 26.725 51.1319 26.7474C49.2991 27.1959 47.4695 27.3974 45.6074 26.9002C42.4714 26.0877 40.8401 23.4587 41.1813 20.0498C41.4055 17.8042 42.5462 16.2021 44.4993 15.3019C45.7233 14.7841 46.9753 14.3349 48.2494 13.9565C49.6728 13.4853 51.1157 13.0726 52.5358 12.5982C53.0196 12.443 53.4807 12.2245 53.9072 11.9482C54.118 11.8043 54.2944 11.6155 54.4239 11.3956C54.5534 11.1756 54.6328 10.9297 54.6564 10.6755C54.68 10.4213 54.6472 10.1651 54.5604 9.92503C54.4736 9.68496 54.3349 9.46701 54.1542 9.28671C53.7477 8.87297 53.2191 8.60071 52.6463 8.51003C51.4259 8.29812 50.1723 8.38623 48.9936 8.76675C47.5832 9.18597 46.2119 9.74167 44.8242 10.2389C44.6 10.3201 44.3888 10.4241 44.0735 10.5638C44.1808 9.66368 44.2718 8.87724 44.3693 8.08756C44.4668 7.29788 44.574 6.59919 44.652 5.85501C44.6507 5.69583 44.708 5.54172 44.8128 5.42192C44.9176 5.30212 45.0628 5.22496 45.2207 5.20507C47.6333 4.58811 50.1108 4.26083 52.6008 4.23015C53.8585 4.19846 55.1151 4.32511 56.3412 4.60712C58.6648 5.17257 59.6169 6.06624 60.3611 8.47103C60.4238 8.40523 60.4784 8.33212 60.5236 8.2533C61.0111 6.80718 62.051 5.91025 63.3216 5.25381C64.3634 4.73236 65.4996 4.42621 66.6623 4.35364C69.3173 4.15541 71.9041 4.60712 74.4616 5.32856C74.5239 5.36149 74.5827 5.40068 74.6371 5.44555C74.7216 6.99566 74.8061 8.58477 74.9003 10.2844L74.8906 10.2649ZM90.7557 15.6561C90.7167 13.9143 90.6225 12.7314 90.2 11.5778C89.6638 10.1349 88.6889 9.19572 87.2265 8.89349C86.5843 8.77055 85.9283 8.73556 85.2767 8.7895C83.0019 8.93574 81.5558 10.1219 80.8831 12.3642C80.3047 14.3195 80.2365 16.3903 80.6848 18.3794C81.1885 20.6997 82.4429 21.9054 84.7145 22.1491C87.389 22.4351 89.5728 21.3724 90.3137 18.3729C90.5086 17.4757 90.6561 16.5689 90.7557 15.6561ZM60.1206 20.6185C60.2181 20.7127 60.2474 20.7582 60.2896 20.7777C61.9455 21.6316 63.7308 22.2069 65.5737 22.4806C66.5299 22.6453 67.5125 22.5614 68.4269 22.2368C68.6409 22.1692 68.8375 22.0552 69.0025 21.9032C69.1676 21.7511 69.2973 21.5645 69.3822 21.3568C69.4672 21.149 69.5054 20.9251 69.4942 20.7009C69.483 20.4767 69.4226 20.2578 69.3173 20.0595C69.1511 19.7059 68.9105 19.3922 68.6121 19.1398C66.6883 17.515 64.7352 15.9161 62.8146 14.2848C61.9811 13.6249 61.2892 12.8037 60.7803 11.8702C60.7186 11.7532 60.6373 11.6493 60.4749 11.3925C60.3514 14.6065 60.2344 17.6417 60.1206 20.6185Z" fill="white"/>
<path d="M111.343 26.8708C110.622 26.8522 109.936 26.554 109.43 26.0391C108.924 25.5241 108.638 24.8328 108.633 24.1111C108.627 23.3894 108.903 22.6938 109.4 22.1713C109.898 21.6487 110.58 21.3401 111.301 21.3105C112.022 21.3291 112.708 21.6274 113.214 22.1423C113.72 22.6572 114.005 23.3485 114.011 24.0702C114.016 24.7919 113.741 25.4875 113.243 26.0101C112.746 26.5326 112.064 26.8413 111.343 26.8708Z" fill="#ED1C24"/>
<path d="M47.2285 35.0126H45.9273V37.0742H45.319V32.0047H47.2116C48.2847 32.0047 48.8761 32.4947 48.8761 33.5002C48.8761 34.4043 48.2678 35.0126 47.2285 35.0126ZM47.1525 32.5539H45.9273V34.4634H47.1609C47.8791 34.4634 48.2509 34.1592 48.2509 33.5086C48.2509 32.8411 47.9298 32.5539 47.1525 32.5539ZM49.9531 33.1453V34.286H49.97C50.1137 33.4833 50.5108 33.1453 51.1614 33.1453H51.4318V33.779H51.1107C50.3249 33.779 49.9531 34.1001 49.9531 34.9197V37.0742H49.3701V33.1453H49.9531ZM52.4389 33.1453V37.0742H51.8559V33.1453H52.4389ZM52.4981 31.8948V32.4694H51.7883V31.8948H52.4981ZM53.889 33.1453V34.2015H53.8974C54.0664 33.4326 54.5903 33.0524 55.3 33.0524C56.3731 33.0524 56.7279 33.7706 56.7279 34.607V37.0742H56.1449V34.7338C56.1449 34.1592 55.8999 33.5847 55.0972 33.5847C54.3452 33.5847 53.889 33.9987 53.889 34.7338V37.0742H53.306V33.1453H53.889ZM57.0355 33.6607V33.1453H57.6692V32.0216H58.2522V33.1453H59.5787V33.6607H58.2522V35.8744C58.2522 36.356 58.438 36.6095 58.9112 36.6095C59.1393 36.6095 59.3083 36.5757 59.5365 36.5081L59.6209 37.0404C59.3506 37.1165 59.1393 37.1672 58.8098 37.1672C58.024 37.1672 57.6692 36.6602 57.6692 35.9251V33.6607H57.0355ZM60.7397 33.1453V37.0742H60.1567V33.1453H60.7397ZM60.7988 31.8948V32.4694H60.0891V31.8948H60.7988ZM62.1897 33.1453V34.2015H62.1982C62.3672 33.4326 62.891 33.0524 63.6007 33.0524C64.6738 33.0524 65.0287 33.7706 65.0287 34.607V37.0742H64.4457V34.7338C64.4457 34.1592 64.2006 33.5847 63.398 33.5847C62.646 33.5847 62.1897 33.9987 62.1897 34.7338V37.0742H61.6067V33.1453H62.1897ZM66.1544 35.8744L66.4501 35.6885C65.884 35.5111 65.5883 35.0802 65.5883 34.5056C65.5883 33.6269 66.1966 33.1453 67.2359 33.1453H69.1032V33.6607H68.4948C68.2836 33.6607 68.1146 33.6607 67.7851 33.6354V33.6523C68.3681 33.7537 68.7906 34.0071 68.7906 34.6239C68.7906 35.3928 68.2414 35.7899 67.1683 35.7899C66.9233 35.7899 66.6952 35.7646 66.5008 35.7054L66.3656 35.8998C66.298 36.0096 66.2389 36.0603 66.2389 36.1532C66.2389 36.3138 66.3741 36.3983 66.6529 36.3983C67.1261 36.3983 67.6668 36.3814 68.1315 36.3814C68.8666 36.3814 69.213 36.7025 69.213 37.2686C69.213 37.9867 68.7399 38.3416 67.2697 38.3416C65.7826 38.3416 65.3433 38.0205 65.3433 37.5136C65.3433 37.1756 65.6474 36.9052 66.2473 36.8292V36.8207C65.9685 36.7785 65.7573 36.6264 65.7573 36.3307C65.7573 36.1532 65.9432 35.9758 66.1544 35.8744ZM67.1683 33.6523C66.4501 33.6523 66.1375 33.9733 66.1375 34.5056C66.1375 35.0548 66.4332 35.3506 67.1852 35.3506C67.9287 35.3506 68.2667 35.0548 68.2667 34.5056C68.2667 33.9649 67.878 33.6523 67.1683 33.6523ZM68.1569 36.8461H66.5938C66.053 36.8461 65.8418 37.1165 65.8418 37.353C65.8418 37.7248 66.146 37.8684 67.2528 37.8684C68.461 37.8684 68.7145 37.6657 68.7145 37.2686C68.7145 37.0404 68.5709 36.8461 68.1569 36.8461ZM73.9814 35.5111H71.6494L71.0241 37.0742H70.3736L72.4943 32.0047H73.1534L75.2741 37.0742H74.6151L73.9814 35.5111ZM72.8407 32.6046H72.7985C72.5957 33.1538 72.3253 33.8551 72.0888 34.438L71.8606 34.9957H73.7702L73.5505 34.438C73.3139 33.8551 73.0351 33.1453 72.8407 32.6046ZM75.9239 35.8744L76.2196 35.6885C75.6535 35.5111 75.3578 35.0802 75.3578 34.5056C75.3578 33.6269 75.9661 33.1453 77.0054 33.1453H78.8726V33.6607H78.2643C78.0531 33.6607 77.8841 33.6607 77.5546 33.6354V33.6523C78.1376 33.7537 78.56 34.0071 78.56 34.6239C78.56 35.3928 78.0108 35.7899 76.9378 35.7899C76.6927 35.7899 76.4646 35.7646 76.2703 35.7054L76.1351 35.8998C76.0675 36.0096 76.0083 36.0603 76.0083 36.1532C76.0083 36.3138 76.1435 36.3983 76.4224 36.3983C76.8955 36.3983 77.4363 36.3814 77.901 36.3814C78.6361 36.3814 78.9825 36.7025 78.9825 37.2686C78.9825 37.9867 78.5093 38.3416 77.0392 38.3416C75.5521 38.3416 75.1127 38.0205 75.1127 37.5136C75.1127 37.1756 75.4169 36.9052 76.0168 36.8292V36.8207C75.738 36.7785 75.5267 36.6264 75.5267 36.3307C75.5267 36.1532 75.7126 35.9758 75.9239 35.8744ZM76.9378 33.6523C76.2196 33.6523 75.907 33.9733 75.907 34.5056C75.907 35.0548 76.2027 35.3506 76.9547 35.3506C77.6982 35.3506 78.0362 35.0548 78.0362 34.5056C78.0362 33.9649 77.6475 33.6523 76.9378 33.6523ZM77.9263 36.8461H76.3632C75.8225 36.8461 75.6112 37.1165 75.6112 37.353C75.6112 37.7248 75.9154 37.8684 77.0223 37.8684C78.2305 37.8684 78.484 37.6657 78.484 37.2686C78.484 37.0404 78.3403 36.8461 77.9263 36.8461ZM81.0627 37.1672C79.846 37.1672 79.0686 36.3983 79.0686 35.1224C79.0686 33.8297 79.8882 33.0524 81.0458 33.0524C82.1949 33.0524 82.8454 33.7875 82.8454 34.8774C82.8454 34.9788 82.837 35.1309 82.8285 35.2914H79.6516C79.7192 36.1448 80.2177 36.6433 81.0627 36.6433C81.84 36.6433 82.1526 36.2377 82.2962 35.7308L82.8201 35.8829C82.6173 36.6856 82.0343 37.1672 81.0627 37.1672ZM79.6685 34.8098H82.2962C82.254 34.024 81.84 33.5678 81.0289 33.5678C80.26 33.5678 79.7615 33.9902 79.6685 34.8098ZM83.9482 33.1453V34.2015H83.9567C84.1256 33.4326 84.6495 33.0524 85.3592 33.0524C86.4323 33.0524 86.7872 33.7706 86.7872 34.607V37.0742H86.2042V34.7338C86.2042 34.1592 85.9591 33.5847 85.1565 33.5847C84.4045 33.5847 83.9482 33.9987 83.9482 34.7338V37.0742H83.3652V33.1453H83.9482ZM91.1232 34.5732L90.5656 34.6831C90.405 33.9987 90.0248 33.5931 89.2559 33.5931C88.4363 33.5931 87.8618 34.1085 87.8618 35.114C87.8618 36.0603 88.411 36.6264 89.2813 36.6264C90.16 36.6264 90.4135 36.1195 90.5825 35.4942L91.1401 35.6209C90.9458 36.5926 90.3797 37.1672 89.2982 37.1672C88.073 37.1672 87.2704 36.3983 87.2704 35.1055C87.2704 33.8213 88.1237 33.0524 89.2644 33.0524C90.3712 33.0524 90.9542 33.6185 91.1232 34.5732ZM92.8502 37.0235L91.1181 33.1453H91.7687L92.3433 34.531C92.5545 35.0464 92.8925 35.8491 93.1629 36.4659C93.4079 35.8237 93.7205 35.0633 93.9233 34.5479L94.464 33.1453H95.0893L93.3825 37.1249C92.9854 38.0459 92.5123 38.4261 91.7603 38.4261C91.5152 38.4261 91.3463 38.4008 91.1857 38.3754L91.2702 37.8178C91.4477 37.8516 91.5997 37.8769 91.7687 37.8769C92.2334 37.8769 92.5292 37.7671 92.8502 37.0235Z" fill="#FDFDFD"/>
</svg>
